<?xml version="1.0" encoding="utf-8"?>
<!-- Svg Vector Icons : http://www.onlinewebfonts.com/icon -->
<!DOCTYPE svg PUBLIC "-//W3C//DTD SVG 1.1//EN" "http://www.w3.org/Graphics/SVG/1.1/DTD/svg11.dtd">
<svg version="1.1" xmlns="http://www.w3.org/2000/svg" xmlns:xlink="http://www.w3.org/1999/xlink" x="0px" y="0px" viewBox="0 0 1000 1000" enable-background="new 0 0 1000 1000" xml:space="preserve">
<metadata> Svg Vector Icons : http://www.onlinewebfonts.com/icon </metadata>
<g><path d="M62,254.4c0,83.2,27.3,143.2,81.1,178.5c44,28.9,95.2,33.2,121.7,33.2c6.5,0,11.6-0.3,15.2-0.5c0,0-8.4,55.9,32.3,111.2l-1.8,0c-70.5,0-300.4,15-300.4,207.5C10,980,221.2,989.9,263.5,989.9c3.3,0,5.2-0.1,5.2-0.1c0.5,0,3.5,0.1,8.7,0.1c27.2,0,97.5-3.5,162.7-35.8c84.6-41.9,127.6-114.6,127.6-216.3c0-98.3-65.4-156.8-113.2-199.5c-29.2-26-54.3-48.5-54.3-70.4c0-22.3,18.4-39,41.7-60.2c37.7-34.3,73.2-83.1,73.2-175.5c0-81.2-10.3-135.6-74-170.2c6.6-3.5,30.1-6,41.7-7.6c34.5-4.8,85-10.2,85-38.9V10H316.3C313.8,10.1,62,19.6,62,254.4z M467.9,756.2c4.8,78.3-61,136.1-159.7,143.4c-100.3,7.5-182.9-38.5-187.7-116.7c-2.3-37.6,13.9-74.4,45.7-103.7c32.2-29.7,76.5-48,124.6-51.7c5.7-0.4,11.3-0.6,16.9-0.6C400.5,626.9,463.4,682.5,467.9,756.2z M402.3,200.8c24.7,88.4-12.6,180.7-71.9,197.8c-6.8,1.9-13.9,3-21,3c-54.4,0-108.3-56-128.2-133.2c-11.2-43.4-10.3-81.3,2.5-117.7c12.6-35.8,35.2-60.1,63.6-68.2c6.8-2,13.9-3,21-3C333.9,79.4,376.1,107.2,402.3,200.8z M826,393.2v-167H722.1v167H558V499h164v167H826V499h164V393.2H826z"/></g>
</svg>